<?xml version="1.0" standalone="no"?>
<!DOCTYPE svg PUBLIC "-//W3C//DTD SVG 20010904//EN"
 "http://www.w3.org/TR/2001/REC-SVG-20010904/DTD/svg10.dtd">
<svg version="1.0" xmlns="http://www.w3.org/2000/svg"
 width="512.000000pt" height="512.000000pt" viewBox="0 0 512.000000 512.000000"
 preserveAspectRatio="xMidYMid meet">
<metadata>
Created by potrace 1.11, written by Peter Selinger 2001-2013
</metadata>
<g transform="translate(0.000000,512.000000) scale(0.100000,-0.100000)"
fill="#ffffff" stroke="none">
<path d="M2440 5076 c-201 -70 -488 -221 -840 -442 -301 -188 -569 -332 -708
-377 -72 -24 -141 -37 -318 -63 -52 -7 -109 -56 -140 -119 l-27 -57 12 -196
c68 -1062 336 -1952 789 -2617 301 -441 687 -805 1158 -1089 179 -109 208
-108 393 4 1191 720 1830 1939 1942 3702 l12 198 -29 57 c-44 87 -86 111 -217
128 -59 8 -135 22 -170 31 -169 43 -398 162 -796 410 -209 131 -361 218 -516
294 -330 163 -410 183 -545 136z m1106 -1353 c33 -11 67 -34 105 -72 95 -95
90 -42 87 -912 l-3 -754 -23 -42 c-35 -66 -79 -110 -140 -140 l-57 -28 -955 0
-955 0 -57 28 c-61 30 -105 74 -140 140 l-23 42 -3 754 c-3 870 -8 817 87 912
94 94 14 87 1087 88 855 1 945 -1 990 -16z"/>
<path d="M3150 3445 l0 -95 100 0 100 0 0 95 0 95 -100 0 -100 0 0 -95z"/>
<path d="M1580 2591 l0 -560 24 -28 24 -28 932 0 932 0 24 28 24 28 0 560 0
559 -980 0 -980 0 0 -559z"/>
</g>
</svg>
